<svg width="160" height="52" viewBox="0 0 160 52" fill="none" xmlns="http://www.w3.org/2000/svg">
<rect y="0.000488281" width="159.475" height="51.9912" rx="10" fill="#2A333E"/>
<path d="M104.217 25.0877V27.6933H102.584V29.402H104.217V35.208C104.217 37.1905 105.114 37.9835 107.37 37.9835C107.766 37.9835 108.144 37.9363 108.474 37.8796V36.1898C108.191 36.2181 108.012 36.237 107.7 36.237C106.69 36.237 106.246 35.765 106.246 34.6887V29.402H108.474V27.6933H106.246V25.0877H104.217Z" fill="white"/>
<path d="M114.222 38.1251C117.224 38.1251 119.065 36.1143 119.065 32.7817C119.065 29.4681 117.215 27.4478 114.222 27.4478C111.22 27.4478 109.37 29.4681 109.37 32.7817C109.37 36.1143 111.211 38.1251 114.222 38.1251ZM114.222 36.3219C112.457 36.3219 111.466 35.0286 111.466 32.7817C111.466 30.5538 112.457 29.251 114.222 29.251C115.978 29.251 116.979 30.5538 116.979 32.7817C116.979 35.0191 115.978 36.3219 114.222 36.3219Z" fill="white"/>
<path d="M120.64 37.9268H122.67V31.8566C122.67 30.4122 123.756 29.4398 125.294 29.4398C125.653 29.4398 126.257 29.5059 126.427 29.5625V27.5611C126.21 27.5045 125.823 27.4762 125.521 27.4762C124.18 27.4762 123.038 28.2125 122.745 29.2227H122.594V27.6461H120.64V37.9268Z" fill="white"/>
<path d="M131.467 29.1755C132.968 29.1755 133.95 30.2234 133.997 31.8377H128.805C128.918 30.2328 129.966 29.1755 131.467 29.1755ZM133.988 35.1513C133.61 35.9538 132.77 36.3975 131.543 36.3975C129.919 36.3975 128.871 35.2552 128.805 33.452V33.3387H136.065V32.6307C136.065 29.402 134.337 27.4478 131.476 27.4478C128.578 27.4478 126.737 29.5342 126.737 32.8195C126.737 36.1048 128.54 38.1251 131.486 38.1251C133.837 38.1251 135.479 36.9922 135.942 35.1513H133.988Z" fill="white"/>
<path d="M90.9062 34.1303C91.0627 36.6548 93.1665 38.2693 96.2976 38.2693C99.644 38.2693 101.738 36.5765 101.738 33.8759C101.738 31.7526 100.544 30.5784 97.6479 29.9033L96.0921 29.5217C94.2526 29.0911 93.5089 28.5138 93.5089 27.506C93.5089 26.234 94.6636 25.4022 96.3955 25.4022C98.0393 25.4022 99.1744 26.2144 99.3798 27.5158H101.513C101.386 25.1381 99.2918 23.4648 96.4248 23.4648C93.3426 23.4648 91.2878 25.1381 91.2878 27.6528C91.2878 29.7271 92.4522 30.96 95.006 31.5569L96.826 31.9972C98.6949 32.4375 99.5168 33.0833 99.5168 34.1597C99.5168 35.4121 98.2252 36.3221 96.464 36.3221C94.5755 36.3221 93.2643 35.4708 93.0784 34.1303H90.9062Z" fill="white"/>
<path d="M69.8804 27.4762C68.4832 27.4762 67.2748 28.1748 66.6517 29.3454H66.5007V27.6461H64.5465V41.3443H66.5762V36.3691H66.7367C67.2748 37.4548 68.436 38.0968 69.8993 38.0968C72.4954 38.0968 74.1475 36.0482 74.1475 32.7817C74.1475 29.5153 72.4954 27.4762 69.8804 27.4762ZM69.3045 36.2747C67.6052 36.2747 66.5385 34.9342 66.5385 32.7912C66.5385 30.6387 67.6052 29.2982 69.314 29.2982C71.0321 29.2982 72.0612 30.6104 72.0612 32.7817C72.0612 34.9625 71.0321 36.2747 69.3045 36.2747Z" fill="white"/>
<path d="M81.2498 27.4762C79.8526 27.4762 78.6442 28.1748 78.0212 29.3454H77.8701V27.6461H75.9159V41.3443H77.9456V36.3691H78.1061C78.6442 37.4548 79.8054 38.0968 81.2687 38.0968C83.8649 38.0968 85.5169 36.0482 85.5169 32.7817C85.5169 29.5153 83.8649 27.4762 81.2498 27.4762ZM80.674 36.2747C78.9747 36.2747 77.9079 34.9342 77.9079 32.7912C77.9079 30.6387 78.9747 29.2982 80.6834 29.2982C82.4016 29.2982 83.4306 30.6104 83.4306 32.7817C83.4306 34.9625 82.4016 36.2747 80.674 36.2747Z" fill="white"/>
<path d="M60.9048 37.9268H63.2336L58.1357 23.8073H55.7776L50.6797 37.9268H52.9302L54.2316 34.1792H59.6132L60.9048 37.9268ZM56.8441 26.3709H57.0105L59.0555 32.3397H54.7893L56.8441 26.3709Z" fill="white"/>
<path d="M52.0469 13.1564V19.9678H54.5061C56.5358 19.9678 57.7112 18.7169 57.7112 16.5409C57.7112 14.3979 56.5264 13.1564 54.5061 13.1564H52.0469ZM53.1042 14.1194H54.3881C55.7995 14.1194 56.635 15.0162 56.635 16.555C56.635 18.1174 55.8136 19.0048 54.3881 19.0048H53.1042V14.1194Z" fill="white"/>
<path d="M61.3109 20.0669C62.8119 20.0669 63.7324 19.0615 63.7324 17.3952C63.7324 15.7384 62.8072 14.7283 61.3109 14.7283C59.8098 14.7283 58.8847 15.7384 58.8847 17.3952C58.8847 19.0615 59.8051 20.0669 61.3109 20.0669ZM61.3109 19.1653C60.4282 19.1653 59.9326 18.5187 59.9326 17.3952C59.9326 16.2812 60.4282 15.6298 61.3109 15.6298C62.1888 15.6298 62.6892 16.2812 62.6892 17.3952C62.6892 18.5139 62.1888 19.1653 61.3109 19.1653Z" fill="white"/>
<path d="M71.5708 14.8274H70.556L69.6403 18.7499H69.56L68.5027 14.8274H67.5303L66.473 18.7499H66.3974L65.477 14.8274H64.448L65.864 19.9678H66.9072L67.9646 16.1821H68.0448L69.1069 19.9678H70.1595L71.5708 14.8274Z" fill="white"/>
<path d="M72.7396 19.9678H73.7544V16.961C73.7544 16.1585 74.2312 15.6582 74.9817 15.6582C75.7322 15.6582 76.091 16.0688 76.091 16.8949V19.9678H77.1058V16.64C77.1058 15.4174 76.4733 14.7283 75.3263 14.7283C74.5522 14.7283 74.0424 15.0729 73.7922 15.644H73.7167V14.8274H72.7396V19.9678Z" fill="white"/>
<path d="M78.7041 19.9678H79.719V12.8213H78.7041V19.9678Z" fill="white"/>
<path d="M83.5358 20.0669C85.0368 20.0669 85.9573 19.0615 85.9573 17.3952C85.9573 15.7384 85.0321 14.7283 83.5358 14.7283C82.0347 14.7283 81.1096 15.7384 81.1096 17.3952C81.1096 19.0615 82.03 20.0669 83.5358 20.0669ZM83.5358 19.1653C82.6531 19.1653 82.1575 18.5187 82.1575 17.3952C82.1575 16.2812 82.6531 15.6298 83.5358 15.6298C84.4137 15.6298 84.9141 16.2812 84.9141 17.3952C84.9141 18.5139 84.4137 19.1653 83.5358 19.1653Z" fill="white"/>
<path d="M88.9811 19.1984C88.4288 19.1984 88.0276 18.9293 88.0276 18.4667C88.0276 18.0136 88.3486 17.7728 89.0566 17.7256L90.3122 17.6454V18.0749C90.3122 18.7122 89.7458 19.1984 88.9811 19.1984ZM88.7215 20.0527C89.3965 20.0527 89.9582 19.7601 90.265 19.2456H90.3452V19.9678H91.3223V16.4559C91.3223 15.3702 90.5954 14.7283 89.3068 14.7283C88.1409 14.7283 87.3101 15.2947 87.2063 16.1774H88.1881C88.3014 15.8139 88.6931 15.6062 89.2596 15.6062C89.9535 15.6062 90.3122 15.9131 90.3122 16.4559V16.8996L88.9197 16.9798C87.6972 17.0554 87.008 17.5888 87.008 18.5139C87.008 19.4533 87.7302 20.0527 88.7215 20.0527Z" fill="white"/>
<path d="M94.7662 20.0527C95.4743 20.0527 96.0738 19.7176 96.3806 19.1559H96.4608V19.9678H97.4332V12.8213H96.4183V15.644H96.3428C96.0643 15.0776 95.4696 14.7424 94.7662 14.7424C93.4682 14.7424 92.6327 15.7715 92.6327 17.3952C92.6327 19.0237 93.4587 20.0527 94.7662 20.0527ZM95.0542 15.6534C95.9038 15.6534 96.4372 16.3284 96.4372 17.3999C96.4372 18.4762 95.9085 19.1417 95.0542 19.1417C94.1951 19.1417 93.6806 18.4856 93.6806 17.3952C93.6806 16.3143 94.1998 15.6534 95.0542 15.6534Z" fill="white"/>
<path d="M104.014 20.0669C105.515 20.0669 106.436 19.0615 106.436 17.3952C106.436 15.7384 105.511 14.7283 104.014 14.7283C102.513 14.7283 101.588 15.7384 101.588 17.3952C101.588 19.0615 102.508 20.0669 104.014 20.0669ZM104.014 19.1653C103.131 19.1653 102.636 18.5187 102.636 17.3952C102.636 16.2812 103.131 15.6298 104.014 15.6298C104.892 15.6298 105.393 16.2812 105.393 17.3952C105.393 18.5139 104.892 19.1653 104.014 19.1653Z" fill="white"/>
<path d="M107.779 19.9678H108.794V16.961C108.794 16.1585 109.271 15.6582 110.021 15.6582C110.772 15.6582 111.13 16.0688 111.13 16.8949V19.9678H112.145V16.64C112.145 15.4174 111.513 14.7283 110.366 14.7283C109.592 14.7283 109.082 15.0729 108.832 15.644H108.756V14.8274H107.779V19.9678Z" fill="white"/>
<path d="M116.819 13.5482V14.851H116.003V15.7054H116.819V18.6083C116.819 19.5996 117.268 19.9961 118.396 19.9961C118.594 19.9961 118.783 19.9725 118.948 19.9442V19.0992C118.807 19.1134 118.717 19.1228 118.561 19.1228C118.056 19.1228 117.834 18.8868 117.834 18.3487V15.7054H118.948V14.851H117.834V13.5482H116.819Z" fill="white"/>
<path d="M120.31 19.9678H121.325V16.9657C121.325 16.1868 121.788 15.6629 122.619 15.6629C123.336 15.6629 123.718 16.0783 123.718 16.8996V19.9678H124.733V16.6494C124.733 15.4269 124.058 14.733 122.963 14.733C122.189 14.733 121.646 15.0776 121.396 15.6534H121.316V12.8213H120.31V19.9678Z" fill="white"/>
<path d="M128.394 15.5921C129.145 15.5921 129.636 16.116 129.659 16.9232H127.063C127.12 16.1208 127.644 15.5921 128.394 15.5921ZM129.655 18.58C129.466 18.9812 129.046 19.2031 128.432 19.2031C127.62 19.2031 127.096 18.6319 127.063 17.7304V17.6737H130.693V17.3197C130.693 15.7054 129.829 14.7283 128.399 14.7283C126.95 14.7283 126.03 15.7715 126.03 17.4141C126.03 19.0568 126.931 20.0669 128.404 20.0669C129.579 20.0669 130.4 19.5005 130.632 18.58H129.655Z" fill="white"/>
<path d="M39.6689 26.3374C39.6936 24.4256 40.7203 22.6166 42.3491 21.6152C41.3215 20.1478 39.6005 19.2173 37.8099 19.1613C35.9001 18.9608 34.0486 20.3041 33.0754 20.3041C32.0834 20.3041 30.585 19.1812 28.9714 19.2144C26.8683 19.2824 24.9076 20.4781 23.8843 22.3168C21.6848 26.125 23.3255 31.7218 25.4324 34.8C26.4866 36.3073 27.7186 37.9911 29.3307 37.9313C30.9082 37.8659 31.4974 36.9254 33.4016 36.9254C35.2881 36.9254 35.8409 37.9313 37.4857 37.8934C39.1784 37.8659 40.2449 36.3794 41.2621 34.8578C42.0195 33.7837 42.6023 32.5967 42.989 31.3406C40.9997 30.4992 39.6712 28.4973 39.6689 26.3374Z" fill="white"/>
<path d="M36.5622 17.1369C37.4851 16.0289 37.9398 14.6048 37.8297 13.167C36.4197 13.3151 35.1172 13.989 34.1817 15.0545C33.267 16.0955 32.791 17.4945 32.881 18.8774C34.2916 18.8919 35.6783 18.2363 36.5622 17.1369Z" fill="white"/>
</svg>
