<svg width="178" height="52" viewBox="0 0 178 52" fill="none" xmlns="http://www.w3.org/2000/svg">
<rect x="0.476562" y="0.000488281" width="176.534" height="51.9912" rx="10" fill="#2A333E"/>
<path d="M89.4665 27.9876C86.7916 27.9876 84.6114 30.0222 84.6114 32.8246C84.6114 35.6098 86.7916 37.6615 89.4665 37.6615C92.1426 37.6615 94.3228 35.6098 94.3228 32.8246C94.3217 30.0222 92.1415 27.9876 89.4665 27.9876ZM89.4665 35.7577C88.0006 35.7577 86.737 34.5487 86.737 32.8257C86.737 31.0845 88.0017 29.8937 89.4665 29.8937C90.9325 29.8937 92.1961 31.0845 92.1961 32.8257C92.1961 34.5476 90.9325 35.7577 89.4665 35.7577ZM78.8737 27.9876C76.1987 27.9876 74.0185 30.0222 74.0185 32.8246C74.0185 35.6098 76.1987 37.6615 78.8737 37.6615C81.5497 37.6615 83.73 35.6098 83.73 32.8246C83.73 30.0222 81.5497 27.9876 78.8737 27.9876ZM78.8737 35.7577C77.4077 35.7577 76.1441 34.5487 76.1441 32.8257C76.1441 31.0845 77.4088 29.8937 78.8737 29.8937C80.3396 29.8937 81.6032 31.0845 81.6032 32.8257C81.6043 34.5476 80.3396 35.7577 78.8737 35.7577ZM66.2746 29.4729V31.5246H71.1855C71.0388 32.679 70.6543 33.5217 70.0675 34.1074C69.3533 34.8217 68.2353 35.6098 66.2746 35.6098C63.2516 35.6098 60.8883 33.1726 60.8883 30.1496C60.8883 27.1266 63.2516 24.6894 66.2746 24.6894C67.9055 24.6894 69.0962 25.3308 69.9754 26.1554L71.4232 24.7076C70.1949 23.535 68.5651 22.6377 66.2746 22.6377C62.1336 22.6377 58.6523 26.0087 58.6523 30.1496C58.6523 34.2905 62.1336 37.6615 66.2746 37.6615C68.5094 37.6615 70.196 36.928 71.5141 35.5541C72.8698 34.1984 73.2918 32.2923 73.2918 30.7535C73.2918 30.2781 73.2554 29.838 73.1814 29.4718H66.2746V29.4729ZM117.804 31.0663C117.401 29.9858 116.173 27.9876 113.663 27.9876C111.171 27.9876 109.1 29.9483 109.1 32.8246C109.1 35.5359 111.153 37.6615 113.9 37.6615C116.117 37.6615 117.4 36.3059 117.932 35.5177L116.283 34.4179C115.734 35.2243 114.982 35.7554 113.9 35.7554C112.82 35.7554 112.05 35.2607 111.555 34.2894L118.023 31.6145L117.804 31.0663ZM111.207 32.679C111.153 30.8092 112.655 29.8573 113.737 29.8573C114.579 29.8573 115.294 30.2793 115.532 30.8832L111.207 32.679ZM105.95 37.3692H108.074V23.1518H105.95V37.3692ZM102.467 29.0692H102.394C101.918 28.5005 101.001 27.9876 99.8479 27.9876C97.4288 27.9876 95.2122 30.1132 95.2122 32.8439C95.2122 35.5552 97.4288 37.6627 99.8479 37.6627C101.002 37.6627 101.918 37.1497 102.394 36.564H102.467V37.26C102.467 39.1104 101.478 40.0999 99.8843 40.0999C98.5832 40.0999 97.7768 39.1662 97.447 38.378L95.5966 39.148C96.1277 40.4297 97.538 42.006 99.8843 42.006C102.376 42.006 104.484 40.54 104.484 36.9666V28.2821H102.468V29.0692H102.467ZM100.031 35.7577C98.565 35.7577 97.3378 34.5294 97.3378 32.8439C97.3378 31.1391 98.565 29.8937 100.031 29.8937C101.478 29.8937 102.614 31.1391 102.614 32.8439C102.614 34.5294 101.478 35.7577 100.031 35.7577ZM127.76 23.1518H122.675V37.3692H124.796V31.9829H127.759C130.11 31.9829 132.424 30.2804 132.424 27.5679C132.424 24.8554 130.112 23.1518 127.76 23.1518ZM127.814 30.004H124.796V25.1307H127.814C129.401 25.1307 130.302 26.4443 130.302 27.5679C130.302 28.6688 129.401 30.004 127.814 30.004ZM140.93 27.9626C139.393 27.9626 137.802 28.6393 137.144 30.1394L139.027 30.9253C139.43 30.1394 140.18 29.8823 140.966 29.8823C142.064 29.8823 143.179 30.5408 143.197 31.7111V31.8578C142.813 31.6383 141.99 31.3097 140.984 31.3097C138.954 31.3097 136.887 32.4254 136.887 34.51C136.887 36.4128 138.552 37.6376 140.417 37.6376C141.843 37.6376 142.63 36.9973 143.124 36.2467H143.196V37.3442H145.246V31.8931C145.247 29.3706 143.361 27.9626 140.93 27.9626ZM140.673 35.7543C139.979 35.7543 139.009 35.4062 139.009 34.5464C139.009 33.4489 140.217 33.0281 141.259 33.0281C142.191 33.0281 142.631 33.2294 143.197 33.5035C143.033 34.8217 141.899 35.7543 140.673 35.7543ZM152.709 28.273L150.276 34.4373H150.203L147.678 28.273H145.392L149.179 36.8882L147.02 41.6808H149.233L155.069 28.273H152.709ZM133.595 37.3692H135.716V23.1518H133.595V37.3692Z" fill="white"/>
<path fill-rule="evenodd" clip-rule="evenodd" d="M93.1897 10.9863C92.1736 10.9863 91.321 11.3394 90.637 12.0431C89.9523 12.7464 89.6112 13.6086 89.6112 14.624C89.6112 15.6394 89.9523 16.5016 90.637 17.2049C91.321 17.9086 92.1736 18.2605 93.1897 18.2605C94.2058 18.2605 95.0584 17.9086 95.7436 17.2048C96.4271 16.5016 96.7694 15.6394 96.7694 14.624C96.7694 13.614 96.4258 12.7542 95.739 12.0477C95.0517 11.3407 94.2004 10.9863 93.1897 10.9863ZM90.6507 14.624C90.6507 13.8471 90.8982 13.2132 91.3872 12.7163C91.8784 12.2196 92.4774 11.9712 93.1897 11.9712C93.9021 11.9712 94.5022 12.2186 94.9921 12.7163C95.4823 13.2131 95.7299 13.8471 95.7299 14.624C95.7299 15.4009 95.4823 16.0349 94.9921 16.5317C94.5021 17.0283 93.9021 17.2768 93.1897 17.2768C92.4773 17.2768 91.8784 17.0295 91.3873 16.5318C90.8982 16.0349 90.6507 15.4009 90.6507 14.624Z" fill="white"/>
<path d="M62.5508 10.9886C61.5472 10.9886 60.6906 11.337 59.9888 12.0342C59.2853 12.7308 58.9336 13.5957 58.9336 14.6251C58.9336 15.6534 59.2853 16.5183 59.9888 17.216C60.6906 17.912 61.5472 18.2605 62.5508 18.2605C63.596 18.2605 64.4526 17.9176 65.1091 17.2287C65.69 16.6463 65.9769 15.8682 65.9769 14.9003C65.9769 14.731 65.9617 14.5548 65.9267 14.3716L65.9155 14.3129H62.4774V15.2773H64.9482C64.8885 15.8171 64.7052 16.2344 64.4046 16.536C63.9107 17.0298 63.2938 17.2767 62.5496 17.2767C61.8498 17.2767 61.2467 17.0317 60.7357 16.5395C60.2272 16.0497 59.9719 15.4131 59.9719 14.6239C59.9719 13.8348 60.2272 13.1982 60.7357 12.7084C61.2467 12.2162 61.8498 11.9712 62.5496 11.9712C63.3263 11.9712 63.9269 12.2335 64.3628 12.755L64.4135 12.8157L65.1154 12.1125L65.0729 12.0618C64.7984 11.7344 64.4325 11.4746 63.9792 11.2798C63.5266 11.086 63.0495 10.9886 62.5508 10.9886Z" fill="white"/>
<path d="M71.22 11.1399H67.0916V18.1081H71.22V17.1244H68.1129V15.1056H70.9152V14.1412H68.1129V12.1225H71.22V11.1399Z" fill="white"/>
<path d="M76.8234 11.1399H71.9899V12.1225H73.896V18.1081H74.9173V12.1225H76.8234V11.1399Z" fill="white"/>
<path d="M81.0928 11.1399H80.0715V18.1081H81.0928V11.1399Z" fill="white"/>
<path d="M86.8876 11.1399H82.054V12.1225H83.9601V18.1081H84.9814V12.1225H86.8876V11.1399Z" fill="white"/>
<path d="M99.0346 11.1399H97.8555V18.1081H98.8745L98.8746 13.7847L98.8428 12.6713L102.232 18.1081H103.26V11.1399H102.239V15.2052L102.239 15.2072L102.27 16.3189L99.0346 11.1399Z" fill="white"/>
<g filter="url(#filter0_ii_7_7154)">
<path d="M23.843 11.8218C23.512 12.1721 23.3164 12.7157 23.3164 13.4197V38.5724C23.3164 39.2775 23.512 39.82 23.843 40.1703L23.9271 40.2522L38.0172 26.1621V25.996V25.83L23.9271 11.7388L23.843 11.8218Z" fill="url(#paint0_linear_7_7154)"/>
<path d="M42.7116 30.8607L38.0156 26.1625V25.9964V25.8304L42.7127 21.1333L42.8185 21.1936L48.3833 24.3553C49.9721 25.2583 49.9721 26.7357 48.3833 27.6398L42.8185 30.8015L42.7116 30.8607Z" fill="url(#paint1_linear_7_7154)"/>
<g filter="url(#filter1_i_7_7154)">
<path d="M42.8209 30.8011L38.0169 25.9971L23.8438 40.1713C24.3669 40.7263 25.2324 40.7946 26.2071 40.2418L42.8209 30.8011Z" fill="url(#paint2_linear_7_7154)"/>
</g>
<path d="M42.8209 21.1925L26.2071 11.7528C25.2324 11.199 24.3669 11.2683 23.8438 11.8233L38.018 25.9976L42.8209 21.1925Z" fill="url(#paint3_linear_7_7154)"/>
</g>
<defs>
<filter id="filter0_ii_7_7154" x="23.3164" y="11.3706" width="26.2585" height="29.2529" filterUnits="userSpaceOnUse" color-interpolation-filters="sRGB">
<feFlood flood-opacity="0" result="BackgroundImageFix"/>
<feBlend mode="normal" in="SourceGraphic" in2="BackgroundImageFix" result="shape"/>
<feColorMatrix in="SourceAlpha" type="matrix" values="0 0 0 0 0 0 0 0 0 0 0 0 0 0 0 0 0 0 127 0" result="hardAlpha"/>
<feOffset dy="-0.15"/>
<feComposite in2="hardAlpha" operator="arithmetic" k2="-1" k3="1"/>
<feColorMatrix type="matrix" values="0 0 0 0 0 0 0 0 0 0 0 0 0 0 0 0 0 0 0.12 0"/>
<feBlend mode="normal" in2="shape" result="effect1_innerShadow_7_7154"/>
<feColorMatrix in="SourceAlpha" type="matrix" values="0 0 0 0 0 0 0 0 0 0 0 0 0 0 0 0 0 0 127 0" result="hardAlpha"/>
<feOffset dy="0.15"/>
<feComposite in2="hardAlpha" operator="arithmetic" k2="-1" k3="1"/>
<feColorMatrix type="matrix" values="0 0 0 0 1 0 0 0 0 1 0 0 0 0 1 0 0 0 0.25 0"/>
<feBlend mode="normal" in2="effect1_innerShadow_7_7154" result="effect2_innerShadow_7_7154"/>
</filter>
<filter id="filter1_i_7_7154" x="23.8438" y="25.9971" width="18.9771" height="14.6265" filterUnits="userSpaceOnUse" color-interpolation-filters="sRGB">
<feFlood flood-opacity="0" result="BackgroundImageFix"/>
<feBlend mode="normal" in="SourceGraphic" in2="BackgroundImageFix" result="shape"/>
<feColorMatrix in="SourceAlpha" type="matrix" values="0 0 0 0 0 0 0 0 0 0 0 0 0 0 0 0 0 0 127 0" result="hardAlpha"/>
<feOffset dy="-0.15"/>
<feComposite in2="hardAlpha" operator="arithmetic" k2="-1" k3="1"/>
<feColorMatrix type="matrix" values="0 0 0 0 0 0 0 0 0 0 0 0 0 0 0 0 0 0 0.08 0"/>
<feBlend mode="normal" in2="shape" result="effect1_innerShadow_7_7154"/>
</filter>
<linearGradient id="paint0_linear_7_7154" x1="36.7682" y1="13.1536" x2="17.682" y2="32.2399" gradientUnits="userSpaceOnUse">
<stop stop-color="#00A0FF"/>
<stop offset="0.0066" stop-color="#00A1FF"/>
<stop offset="0.2601" stop-color="#00BEFF"/>
<stop offset="0.5122" stop-color="#00D2FF"/>
<stop offset="0.7604" stop-color="#00DFFF"/>
<stop offset="1" stop-color="#00E3FF"/>
</linearGradient>
<linearGradient id="paint1_linear_7_7154" x1="50.4515" y1="25.9964" x2="22.9333" y2="25.9964" gradientUnits="userSpaceOnUse">
<stop stop-color="#FFE000"/>
<stop offset="0.4087" stop-color="#FFBD00"/>
<stop offset="0.7754" stop-color="#FFA500"/>
<stop offset="1" stop-color="#FF9C00"/>
</linearGradient>
<linearGradient id="paint2_linear_7_7154" x1="40.212" y1="28.6059" x2="14.3286" y2="54.4893" gradientUnits="userSpaceOnUse">
<stop stop-color="#FF3A44"/>
<stop offset="1" stop-color="#C31162"/>
</linearGradient>
<linearGradient id="paint3_linear_7_7154" x1="20.2742" y1="3.45026" x2="31.8319" y2="15.0079" gradientUnits="userSpaceOnUse">
<stop stop-color="#32A071"/>
<stop offset="0.0685" stop-color="#2DA771"/>
<stop offset="0.4762" stop-color="#15CF74"/>
<stop offset="0.8009" stop-color="#06E775"/>
<stop offset="1" stop-color="#00F076"/>
</linearGradient>
</defs>
</svg>
