<svg width="114" height="35" viewBox="0 0 114 35" fill="none" xmlns="http://www.w3.org/2000/svg">
<path d="M7.71163 34.2082H3.19963L6.91163 26.0162L0.223633 12.2562H4.99163L9.18363 21.4722L13.0556 12.2562H17.5996L7.71163 34.2082Z" fill="white"/>
<path d="M18.7491 23.7122C18.7491 22.3682 19.1865 21.2909 20.0611 20.4802C20.9358 19.6695 22.0665 19.1575 23.4531 18.9442L27.3251 18.3682C28.1145 18.2615 28.5091 17.8882 28.5091 17.2482C28.5091 16.6509 28.2745 16.1602 27.8051 15.7762C27.3571 15.3922 26.7065 15.2002 25.8531 15.2002C24.9571 15.2002 24.2425 15.4455 23.7091 15.9362C23.1971 16.4269 22.9091 17.0349 22.8451 17.7602L19.0691 16.9602C19.2185 15.5949 19.8905 14.3895 21.0851 13.3442C22.2798 12.2989 23.8585 11.7762 25.8211 11.7762C28.1678 11.7762 29.8958 12.3415 31.0051 13.4722C32.1145 14.5815 32.6691 16.0109 32.6691 17.7602V25.5042C32.6691 26.4429 32.7331 27.2749 32.8611 28.0002H28.9571C28.8505 27.5309 28.7971 26.9015 28.7971 26.1122C27.7945 27.6695 26.2478 28.4482 24.1571 28.4482C22.5358 28.4482 21.2238 27.9789 20.2211 27.0402C19.2398 26.1015 18.7491 24.9922 18.7491 23.7122ZM25.0531 25.2802C26.0558 25.2802 26.8771 25.0029 27.5171 24.4482C28.1785 23.8722 28.5091 22.9335 28.5091 21.6322V20.9282L24.9571 21.4722C23.6558 21.6642 23.0051 22.3255 23.0051 23.4562C23.0051 23.9682 23.1865 24.4055 23.5491 24.7682C23.9118 25.1095 24.4131 25.2802 25.0531 25.2802Z" fill="white"/>
<path d="M41.2151 18.9442V28.0002H36.9591V12.2562H41.0871V14.2082C41.5351 13.4402 42.1751 12.8535 43.0071 12.4482C43.8391 12.0429 44.7138 11.8402 45.6311 11.8402C47.4871 11.8402 48.8951 12.4269 49.8551 13.6002C50.8365 14.7522 51.3271 16.2455 51.3271 18.0802V28.0002H47.0711V18.8162C47.0711 17.8775 46.8258 17.1202 46.3351 16.5442C45.8658 15.9682 45.1405 15.6802 44.1591 15.6802C43.2631 15.6802 42.5485 15.9895 42.0151 16.6082C41.4818 17.2269 41.2151 18.0055 41.2151 18.9442Z" fill="white"/>
<path d="M59.9026 18.9442V28.0002H55.6466V12.2562H59.7746V14.2082C60.2226 13.4402 60.8626 12.8535 61.6946 12.4482C62.5266 12.0429 63.4013 11.8402 64.3186 11.8402C66.1746 11.8402 67.5826 12.4269 68.5426 13.6002C69.524 14.7522 70.0146 16.2455 70.0146 18.0802V28.0002H65.7586V18.8162C65.7586 17.8775 65.5133 17.1202 65.0226 16.5442C64.5533 15.9682 63.828 15.6802 62.8466 15.6802C61.9506 15.6802 61.236 15.9895 60.7026 16.6082C60.1693 17.2269 59.9026 18.0055 59.9026 18.9442Z" fill="white"/>
<path d="M73.3741 23.7122C73.3741 22.3682 73.8115 21.2909 74.6861 20.4802C75.5608 19.6695 76.6915 19.1575 78.0781 18.9442L81.9501 18.3682C82.7395 18.2615 83.1341 17.8882 83.1341 17.2482C83.1341 16.6509 82.8995 16.1602 82.4301 15.7762C81.9821 15.3922 81.3315 15.2002 80.4781 15.2002C79.5821 15.2002 78.8675 15.4455 78.3341 15.9362C77.8221 16.4269 77.5341 17.0349 77.4701 17.7602L73.6941 16.9602C73.8435 15.5949 74.5155 14.3895 75.7101 13.3442C76.9048 12.2989 78.4835 11.7762 80.4461 11.7762C82.7928 11.7762 84.5208 12.3415 85.6301 13.4722C86.7395 14.5815 87.2941 16.0109 87.2941 17.7602V25.5042C87.2941 26.4429 87.3581 27.2749 87.4861 28.0002H83.5821C83.4755 27.5309 83.4221 26.9015 83.4221 26.1122C82.4195 27.6695 80.8728 28.4482 78.7821 28.4482C77.1608 28.4482 75.8488 27.9789 74.8461 27.0402C73.8648 26.1015 73.3741 24.9922 73.3741 23.7122ZM79.6781 25.2802C80.6808 25.2802 81.5021 25.0029 82.1421 24.4482C82.8035 23.8722 83.1341 22.9335 83.1341 21.6322V20.9282L79.5821 21.4722C78.2808 21.6642 77.6301 22.3255 77.6301 23.4562C77.6301 23.9682 77.8115 24.4055 78.1741 24.7682C78.5368 25.1095 79.0381 25.2802 79.6781 25.2802Z" fill="white"/>
<path d="M95.8401 28.0002H91.5841V4.83219H95.8401V28.0002Z" fill="white"/>
<path d="M103.128 1.84819H100.356V9.00019H98.9156V1.84819H96.1556V0.492188H103.128V1.84819Z" fill="white"/>
<path d="M113.669 9.00019H112.241V2.73619L109.589 9.00019H108.341L105.713 2.76019V9.00019H104.309V0.492188H106.229L108.989 6.98419L111.713 0.492188H113.669V9.00019Z" fill="white"/>
</svg>
