<svg width="83" height="15" viewBox="0 0 83 15" fill="none" xmlns="http://www.w3.org/2000/svg">
<path d="M7.5 0L9.57194 4.64822L14.6329 5.18237L10.8525 8.58928L11.9084 13.5676L7.5 11.025L3.09161 13.5676L4.14753 8.58928L0.367076 5.18237L5.42806 4.64822L7.5 0Z" fill="#EA0000"/>
<path d="M24.5 0L26.5719 4.64822L31.6329 5.18237L27.8525 8.58928L28.9084 13.5676L24.5 11.025L20.0916 13.5676L21.1475 8.58928L17.3671 5.18237L22.4281 4.64822L24.5 0Z" fill="#EA0000"/>
<path d="M41.5 0L43.5719 4.64822L48.6329 5.18237L44.8525 8.58928L45.9084 13.5676L41.5 11.025L37.0916 13.5676L38.1475 8.58928L34.3671 5.18237L39.4281 4.64822L41.5 0Z" fill="#EA0000"/>
<path d="M58.5 0L60.5719 4.64822L65.6329 5.18237L61.8525 8.58928L62.9084 13.5676L58.5 11.025L54.0916 13.5676L55.1475 8.58928L51.3671 5.18237L56.4281 4.64822L58.5 0Z" fill="#EA0000"/>
<path d="M75.5 0L77.5719 4.64822L82.6329 5.18237L78.8525 8.58928L79.9084 13.5676L75.5 11.025L71.0916 13.5676L72.1475 8.58928L68.3671 5.18237L73.4281 4.64822L75.5 0Z" fill="#E4E4E4"/>
<path d="M71.0916 13.5676L75.5 11.025V0L73.428 4.64822L68.3671 5.18237L72.1475 8.58928L71.0916 13.5676Z" fill="#EA0000"/>
</svg>
